%TF.GenerationSoftware,KiCad,Pcbnew,(7.0.0-0)*%
%TF.CreationDate,2023-06-04T20:58:43+02:00*%
%TF.ProjectId,projekt_kue,70726f6a-656b-4745-9f6b-75652e6b6963,rev?*%
%TF.SameCoordinates,Original*%
%TF.FileFunction,Copper,L2,Bot*%
%TF.FilePolarity,Positive*%
%FSLAX46Y46*%
G04 Gerber Fmt 4.6, Leading zero omitted, Abs format (unit mm)*
G04 Created by KiCad (PCBNEW (7.0.0-0)) date 2023-06-04 20:58:43*
%MOMM*%
%LPD*%
G01*
G04 APERTURE LIST*
%TA.AperFunction,ComponentPad*%
%ADD10R,1.700000X1.700000*%
%TD*%
%TA.AperFunction,ComponentPad*%
%ADD11O,1.700000X1.700000*%
%TD*%
%TA.AperFunction,ViaPad*%
%ADD12C,0.800000*%
%TD*%
G04 APERTURE END LIST*
D10*
%TO.P,LS1,1,1*%
%TO.N,Net-(Q1-C)*%
X134239999Y-98349999D03*
D11*
%TO.P,LS1,2,2*%
%TO.N,Net-(C1-Pad1)*%
X131699999Y-98349999D03*
%TD*%
D10*
%TO.P,Q3,1,C*%
%TO.N,+1V5*%
X129249999Y-109674999D03*
D11*
%TO.P,Q3,2,E*%
%TO.N,Net-(Q2-C)*%
X131789999Y-109674999D03*
%TD*%
D10*
%TO.P,BT1,1,+*%
%TO.N,+1V5*%
X129399999Y-113399999D03*
D11*
%TO.P,BT1,2,-*%
%TO.N,GND*%
X131939999Y-113399999D03*
%TD*%
D12*
%TO.N,GND*%
X124600000Y-92050000D03*
X138000000Y-101250000D03*
X141000000Y-98450000D03*
X136300000Y-101450000D03*
%TD*%
%TA.AperFunction,Conductor*%
%TO.N,GND*%
G36*
X130639387Y-86255636D02*
G01*
X131404433Y-86295073D01*
X131410745Y-86295561D01*
X132172738Y-86374328D01*
X132179069Y-86375147D01*
X132935973Y-86493032D01*
X132942249Y-86494176D01*
X133692100Y-86650873D01*
X133698273Y-86652330D01*
X134439056Y-86847418D01*
X134445164Y-86849196D01*
X135174937Y-87082165D01*
X135180961Y-87084261D01*
X135897748Y-87354480D01*
X135903663Y-87356886D01*
X136605573Y-87663638D01*
X136611357Y-87666345D01*
X137296561Y-88008832D01*
X137302197Y-88011833D01*
X137968855Y-88389136D01*
X137974329Y-88392423D01*
X138296297Y-88597215D01*
X138620684Y-88803547D01*
X138625959Y-88807095D01*
X139246192Y-89248032D01*
X139250308Y-89250958D01*
X139255409Y-89254786D01*
X139856092Y-89730210D01*
X139860973Y-89734283D01*
X140368809Y-90180608D01*
X140436358Y-90239975D01*
X140441044Y-90244312D01*
X140989635Y-90778955D01*
X140994092Y-90783528D01*
X141514434Y-91345705D01*
X141518649Y-91350501D01*
X142009358Y-91938714D01*
X142013321Y-91943721D01*
X142473104Y-92556422D01*
X142476804Y-92561627D01*
X142904430Y-93197176D01*
X142907857Y-93202564D01*
X143302199Y-93859287D01*
X143305344Y-93864844D01*
X143665358Y-94540998D01*
X143668213Y-94546710D01*
X143992941Y-95240500D01*
X143995498Y-95246351D01*
X144284077Y-95955927D01*
X144286330Y-95961902D01*
X144538004Y-96685411D01*
X144539946Y-96691494D01*
X144754040Y-97426998D01*
X144755666Y-97433173D01*
X144931612Y-98178714D01*
X144932918Y-98184964D01*
X145070250Y-98938571D01*
X145071233Y-98944880D01*
X145169592Y-99704577D01*
X145170248Y-99710929D01*
X145229365Y-100474654D01*
X145229694Y-100481031D01*
X145249417Y-101246806D01*
X145249417Y-101253192D01*
X145229694Y-102018968D01*
X145229365Y-102025345D01*
X145170248Y-102789070D01*
X145169592Y-102795422D01*
X145071233Y-103555119D01*
X145070250Y-103561428D01*
X144932918Y-104315035D01*
X144931612Y-104321285D01*
X144755666Y-105066826D01*
X144754040Y-105073001D01*
X144539946Y-105808505D01*
X144538004Y-105814588D01*
X144286330Y-106538097D01*
X144284077Y-106544072D01*
X143995498Y-107253648D01*
X143992941Y-107259499D01*
X143668213Y-107953289D01*
X143665358Y-107959001D01*
X143305344Y-108635155D01*
X143302199Y-108640712D01*
X142907857Y-109297435D01*
X142904430Y-109302823D01*
X142476804Y-109938372D01*
X142473104Y-109943577D01*
X142013321Y-110556278D01*
X142009358Y-110561285D01*
X141518649Y-111149498D01*
X141514434Y-111154294D01*
X140994092Y-111716471D01*
X140989635Y-111721044D01*
X140441044Y-112255687D01*
X140436358Y-112260024D01*
X139860984Y-112765707D01*
X139856081Y-112769798D01*
X139255416Y-113245208D01*
X139250308Y-113249041D01*
X138625970Y-113692896D01*
X138620672Y-113696460D01*
X137974329Y-114107576D01*
X137968855Y-114110863D01*
X137302197Y-114488166D01*
X137296561Y-114491167D01*
X136611357Y-114833654D01*
X136605573Y-114836361D01*
X135903663Y-115143113D01*
X135897748Y-115145519D01*
X135180961Y-115415738D01*
X135174930Y-115417836D01*
X134445175Y-115650800D01*
X134439044Y-115652584D01*
X133698294Y-115847664D01*
X133692079Y-115849131D01*
X132942252Y-116005822D01*
X132935970Y-116006967D01*
X132179070Y-116124851D01*
X132172738Y-116125671D01*
X131410773Y-116204435D01*
X131404406Y-116204928D01*
X130639388Y-116244363D01*
X130633005Y-116244527D01*
X129866995Y-116244527D01*
X129860612Y-116244363D01*
X129095593Y-116204928D01*
X129089226Y-116204435D01*
X128327261Y-116125671D01*
X128320929Y-116124851D01*
X127564029Y-116006967D01*
X127557747Y-116005822D01*
X126807920Y-115849131D01*
X126801705Y-115847664D01*
X126060955Y-115652584D01*
X126054824Y-115650800D01*
X125325069Y-115417836D01*
X125319038Y-115415738D01*
X124602251Y-115145519D01*
X124596336Y-115143113D01*
X123894426Y-114836361D01*
X123888642Y-114833654D01*
X123203438Y-114491167D01*
X123197802Y-114488166D01*
X122855751Y-114294578D01*
X128049500Y-114294578D01*
X128049501Y-114297872D01*
X128049853Y-114301150D01*
X128049854Y-114301161D01*
X128055079Y-114349768D01*
X128055080Y-114349773D01*
X128055909Y-114357483D01*
X128058619Y-114364749D01*
X128058620Y-114364753D01*
X128092217Y-114454831D01*
X128106204Y-114492331D01*
X128192454Y-114607546D01*
X128307669Y-114693796D01*
X128442517Y-114744091D01*
X128502127Y-114750500D01*
X130297872Y-114750499D01*
X130357483Y-114744091D01*
X130492331Y-114693796D01*
X130607546Y-114607546D01*
X130693796Y-114492331D01*
X130744091Y-114357483D01*
X130750500Y-114297873D01*
X130750499Y-112502128D01*
X130744091Y-112442517D01*
X130693796Y-112307669D01*
X130607546Y-112192454D01*
X130492331Y-112106204D01*
X130357483Y-112055909D01*
X130349770Y-112055079D01*
X130349767Y-112055079D01*
X130301180Y-112049855D01*
X130301169Y-112049854D01*
X130297873Y-112049500D01*
X130294550Y-112049500D01*
X128505439Y-112049500D01*
X128505420Y-112049500D01*
X128502128Y-112049501D01*
X128498850Y-112049853D01*
X128498838Y-112049854D01*
X128450231Y-112055079D01*
X128450225Y-112055080D01*
X128442517Y-112055909D01*
X128435252Y-112058618D01*
X128435246Y-112058620D01*
X128315980Y-112103104D01*
X128315978Y-112103104D01*
X128307669Y-112106204D01*
X128300572Y-112111516D01*
X128300568Y-112111519D01*
X128199550Y-112187141D01*
X128199546Y-112187144D01*
X128192454Y-112192454D01*
X128187144Y-112199546D01*
X128187141Y-112199550D01*
X128111519Y-112300568D01*
X128111516Y-112300572D01*
X128106204Y-112307669D01*
X128103104Y-112315978D01*
X128103104Y-112315980D01*
X128058620Y-112435247D01*
X128058619Y-112435250D01*
X128055909Y-112442517D01*
X128055079Y-112450227D01*
X128055079Y-112450232D01*
X128049855Y-112498819D01*
X128049854Y-112498831D01*
X128049500Y-112502127D01*
X128049500Y-112505448D01*
X128049500Y-112505449D01*
X128049500Y-114294560D01*
X128049500Y-114294578D01*
X122855751Y-114294578D01*
X122531144Y-114110863D01*
X122525670Y-114107576D01*
X121879327Y-113696460D01*
X121874029Y-113692896D01*
X121249691Y-113249041D01*
X121244583Y-113245208D01*
X120643911Y-112769792D01*
X120639015Y-112765707D01*
X120280061Y-112450231D01*
X120263011Y-112435246D01*
X120063641Y-112260024D01*
X120058955Y-112255687D01*
X119510364Y-111721044D01*
X119505907Y-111716471D01*
X118985565Y-111154294D01*
X118981350Y-111149498D01*
X118617620Y-110713495D01*
X118497559Y-110569578D01*
X127899500Y-110569578D01*
X127899501Y-110572872D01*
X127899853Y-110576150D01*
X127899854Y-110576161D01*
X127905079Y-110624768D01*
X127905080Y-110624773D01*
X127905909Y-110632483D01*
X127908619Y-110639749D01*
X127908620Y-110639753D01*
X127934695Y-110709663D01*
X127956204Y-110767331D01*
X127961518Y-110774430D01*
X127961519Y-110774431D01*
X128017367Y-110849035D01*
X128042454Y-110882546D01*
X128157669Y-110968796D01*
X128292517Y-111019091D01*
X128352127Y-111025500D01*
X130147872Y-111025499D01*
X130207483Y-111019091D01*
X130342331Y-110968796D01*
X130457546Y-110882546D01*
X130543796Y-110767331D01*
X130592810Y-110635916D01*
X130627789Y-110585537D01*
X130682634Y-110558084D01*
X130743927Y-110560273D01*
X130796673Y-110591569D01*
X130918599Y-110713495D01*
X130923031Y-110716598D01*
X130923033Y-110716600D01*
X131067260Y-110817589D01*
X131112170Y-110849035D01*
X131326337Y-110948903D01*
X131554592Y-111010063D01*
X131790000Y-111030659D01*
X132025408Y-111010063D01*
X132253663Y-110948903D01*
X132467830Y-110849035D01*
X132661401Y-110713495D01*
X132828495Y-110546401D01*
X132964035Y-110352830D01*
X133063903Y-110138663D01*
X133125063Y-109910408D01*
X133145659Y-109675000D01*
X133125063Y-109439592D01*
X133063903Y-109211337D01*
X132964035Y-108997171D01*
X132828495Y-108803599D01*
X132661401Y-108636505D01*
X132656970Y-108633402D01*
X132656966Y-108633399D01*
X132472259Y-108504066D01*
X132472257Y-108504064D01*
X132467830Y-108500965D01*
X132462933Y-108498681D01*
X132462927Y-108498678D01*
X132258572Y-108403386D01*
X132258570Y-108403385D01*
X132253663Y-108401097D01*
X132248438Y-108399697D01*
X132248430Y-108399694D01*
X132030634Y-108341337D01*
X132030630Y-108341336D01*
X132025408Y-108339937D01*
X132020020Y-108339465D01*
X132020017Y-108339465D01*
X131795395Y-108319813D01*
X131790000Y-108319341D01*
X131784605Y-108319813D01*
X131559982Y-108339465D01*
X131559977Y-108339465D01*
X131554592Y-108339937D01*
X131549371Y-108341335D01*
X131549365Y-108341337D01*
X131331569Y-108399694D01*
X131331557Y-108399698D01*
X131326337Y-108401097D01*
X131321432Y-108403383D01*
X131321427Y-108403386D01*
X131117081Y-108498675D01*
X131117077Y-108498677D01*
X131112171Y-108500965D01*
X131107738Y-108504068D01*
X131107731Y-108504073D01*
X130923034Y-108633399D01*
X130923029Y-108633402D01*
X130918599Y-108636505D01*
X130914774Y-108640329D01*
X130914775Y-108640329D01*
X130796673Y-108758431D01*
X130743926Y-108789726D01*
X130682633Y-108791915D01*
X130627789Y-108764462D01*
X130592810Y-108714082D01*
X130565521Y-108640918D01*
X130543796Y-108582669D01*
X130457546Y-108467454D01*
X130367030Y-108399694D01*
X130349431Y-108386519D01*
X130349430Y-108386518D01*
X130342331Y-108381204D01*
X130235442Y-108341337D01*
X130214752Y-108333620D01*
X130214750Y-108333619D01*
X130207483Y-108330909D01*
X130199770Y-108330079D01*
X130199767Y-108330079D01*
X130151180Y-108324855D01*
X130151169Y-108324854D01*
X130147873Y-108324500D01*
X130144550Y-108324500D01*
X128355439Y-108324500D01*
X128355420Y-108324500D01*
X128352128Y-108324501D01*
X128348850Y-108324853D01*
X128348838Y-108324854D01*
X128300231Y-108330079D01*
X128300225Y-108330080D01*
X128292517Y-108330909D01*
X128285252Y-108333618D01*
X128285246Y-108333620D01*
X128165980Y-108378104D01*
X128165978Y-108378104D01*
X128157669Y-108381204D01*
X128150572Y-108386516D01*
X128150568Y-108386519D01*
X128049550Y-108462141D01*
X128049546Y-108462144D01*
X128042454Y-108467454D01*
X128037144Y-108474546D01*
X128037141Y-108474550D01*
X127961519Y-108575568D01*
X127961516Y-108575572D01*
X127956204Y-108582669D01*
X127953104Y-108590978D01*
X127953104Y-108590980D01*
X127908620Y-108710247D01*
X127908619Y-108710250D01*
X127905909Y-108717517D01*
X127905079Y-108725227D01*
X127905079Y-108725232D01*
X127899855Y-108773819D01*
X127899854Y-108773831D01*
X127899500Y-108777127D01*
X127899500Y-108780448D01*
X127899500Y-108780449D01*
X127899500Y-110569560D01*
X127899500Y-110569578D01*
X118497559Y-110569578D01*
X118490633Y-110561276D01*
X118486678Y-110556278D01*
X118482141Y-110550232D01*
X118026884Y-109943562D01*
X118023206Y-109938387D01*
X117595557Y-109302804D01*
X117592154Y-109297455D01*
X117197792Y-108640697D01*
X117194663Y-108635170D01*
X116834634Y-107958987D01*
X116831786Y-107953289D01*
X116507058Y-107259499D01*
X116504501Y-107253648D01*
X116215913Y-106544049D01*
X116213677Y-106538119D01*
X115961985Y-105814559D01*
X115960062Y-105808534D01*
X115745956Y-105072990D01*
X115744333Y-105066826D01*
X115568387Y-104321285D01*
X115567081Y-104315035D01*
X115429749Y-103561428D01*
X115428766Y-103555119D01*
X115330403Y-102795388D01*
X115329754Y-102789099D01*
X115270632Y-102025312D01*
X115270306Y-102019002D01*
X115250582Y-101253184D01*
X115250582Y-101246806D01*
X115270306Y-100480995D01*
X115270632Y-100474689D01*
X115329754Y-99710896D01*
X115330403Y-99704615D01*
X115428769Y-98944856D01*
X115429749Y-98938571D01*
X115452512Y-98813663D01*
X115537006Y-98350000D01*
X130344341Y-98350000D01*
X130364937Y-98585408D01*
X130366336Y-98590630D01*
X130366337Y-98590634D01*
X130424694Y-98808430D01*
X130424697Y-98808438D01*
X130426097Y-98813663D01*
X130428385Y-98818570D01*
X130428386Y-98818572D01*
X130523678Y-99022927D01*
X130523681Y-99022933D01*
X130525965Y-99027830D01*
X130529064Y-99032257D01*
X130529066Y-99032259D01*
X130658399Y-99216966D01*
X130658402Y-99216970D01*
X130661505Y-99221401D01*
X130828599Y-99388495D01*
X130833031Y-99391598D01*
X130833033Y-99391600D01*
X130977260Y-99492589D01*
X131022170Y-99524035D01*
X131236337Y-99623903D01*
X131464592Y-99685063D01*
X131700000Y-99705659D01*
X131935408Y-99685063D01*
X132163663Y-99623903D01*
X132377830Y-99524035D01*
X132571401Y-99388495D01*
X132693329Y-99266566D01*
X132746072Y-99235273D01*
X132807365Y-99233084D01*
X132862210Y-99260537D01*
X132897189Y-99310916D01*
X132946204Y-99442331D01*
X132951518Y-99449430D01*
X132951519Y-99449431D01*
X133007367Y-99524035D01*
X133032454Y-99557546D01*
X133147669Y-99643796D01*
X133282517Y-99694091D01*
X133342127Y-99700500D01*
X135137872Y-99700499D01*
X135197483Y-99694091D01*
X135332331Y-99643796D01*
X135447546Y-99557546D01*
X135533796Y-99442331D01*
X135584091Y-99307483D01*
X135590500Y-99247873D01*
X135590499Y-97452128D01*
X135584091Y-97392517D01*
X135533796Y-97257669D01*
X135447546Y-97142454D01*
X135357030Y-97074694D01*
X135339431Y-97061519D01*
X135339430Y-97061518D01*
X135332331Y-97056204D01*
X135225442Y-97016337D01*
X135204752Y-97008620D01*
X135204750Y-97008619D01*
X135197483Y-97005909D01*
X135189770Y-97005079D01*
X135189767Y-97005079D01*
X135141180Y-96999855D01*
X135141169Y-96999854D01*
X135137873Y-96999500D01*
X135134550Y-96999500D01*
X133345439Y-96999500D01*
X133345420Y-96999500D01*
X133342128Y-96999501D01*
X133338850Y-96999853D01*
X133338838Y-96999854D01*
X133290231Y-97005079D01*
X133290225Y-97005080D01*
X133282517Y-97005909D01*
X133275252Y-97008618D01*
X133275246Y-97008620D01*
X133155980Y-97053104D01*
X133155978Y-97053104D01*
X133147669Y-97056204D01*
X133140572Y-97061516D01*
X133140568Y-97061519D01*
X133039550Y-97137141D01*
X133039546Y-97137144D01*
X133032454Y-97142454D01*
X133027144Y-97149546D01*
X133027141Y-97149550D01*
X132951519Y-97250568D01*
X132951516Y-97250572D01*
X132946204Y-97257669D01*
X132943104Y-97265978D01*
X132943105Y-97265978D01*
X132897189Y-97389083D01*
X132862210Y-97439462D01*
X132807365Y-97466915D01*
X132746072Y-97464726D01*
X132693326Y-97433430D01*
X132575232Y-97315336D01*
X132575230Y-97315334D01*
X132571401Y-97311505D01*
X132566970Y-97308402D01*
X132566966Y-97308399D01*
X132382259Y-97179066D01*
X132382257Y-97179064D01*
X132377830Y-97175965D01*
X132372933Y-97173681D01*
X132372927Y-97173678D01*
X132168572Y-97078386D01*
X132168570Y-97078385D01*
X132163663Y-97076097D01*
X132158438Y-97074697D01*
X132158430Y-97074694D01*
X131940634Y-97016337D01*
X131940630Y-97016336D01*
X131935408Y-97014937D01*
X131930020Y-97014465D01*
X131930017Y-97014465D01*
X131705395Y-96994813D01*
X131700000Y-96994341D01*
X131694605Y-96994813D01*
X131469982Y-97014465D01*
X131469977Y-97014465D01*
X131464592Y-97014937D01*
X131459371Y-97016335D01*
X131459365Y-97016337D01*
X131241569Y-97074694D01*
X131241557Y-97074698D01*
X131236337Y-97076097D01*
X131231432Y-97078383D01*
X131231427Y-97078386D01*
X131027081Y-97173675D01*
X131027077Y-97173677D01*
X131022171Y-97175965D01*
X131017738Y-97179068D01*
X131017731Y-97179073D01*
X130833034Y-97308399D01*
X130833029Y-97308402D01*
X130828599Y-97311505D01*
X130824775Y-97315328D01*
X130824769Y-97315334D01*
X130665334Y-97474769D01*
X130665328Y-97474775D01*
X130661505Y-97478599D01*
X130658402Y-97483029D01*
X130658399Y-97483034D01*
X130529073Y-97667731D01*
X130529068Y-97667738D01*
X130525965Y-97672171D01*
X130523677Y-97677077D01*
X130523675Y-97677081D01*
X130428386Y-97881427D01*
X130428383Y-97881432D01*
X130426097Y-97886337D01*
X130424698Y-97891557D01*
X130424694Y-97891569D01*
X130366337Y-98109365D01*
X130366335Y-98109371D01*
X130364937Y-98114592D01*
X130344341Y-98350000D01*
X115537006Y-98350000D01*
X115567082Y-98184954D01*
X115568387Y-98178714D01*
X115636153Y-97891569D01*
X115744338Y-97433152D01*
X115745953Y-97427019D01*
X115960065Y-96691454D01*
X115961982Y-96685451D01*
X116213682Y-95961867D01*
X116215908Y-95955962D01*
X116504509Y-95246331D01*
X116507049Y-95240519D01*
X116831800Y-94546680D01*
X116834626Y-94541027D01*
X117194672Y-93864812D01*
X117197782Y-93859318D01*
X117592165Y-93202527D01*
X117595545Y-93197213D01*
X118023218Y-92561593D01*
X118026871Y-92556455D01*
X118486700Y-91943692D01*
X118490618Y-91938742D01*
X118981362Y-91350487D01*
X118985552Y-91345718D01*
X119505930Y-90783503D01*
X119510340Y-90778978D01*
X120058973Y-90244294D01*
X120063623Y-90239991D01*
X120639044Y-89734266D01*
X120643888Y-89730225D01*
X121244608Y-89254771D01*
X121249664Y-89250977D01*
X121874058Y-88807083D01*
X121879297Y-88803558D01*
X122525675Y-88392419D01*
X122531144Y-88389136D01*
X122537415Y-88385587D01*
X123197817Y-88011824D01*
X123203423Y-88008839D01*
X123888658Y-87666337D01*
X123894409Y-87663645D01*
X124596343Y-87356882D01*
X124602244Y-87354482D01*
X125319057Y-87084254D01*
X125325050Y-87082169D01*
X126054845Y-86849192D01*
X126060933Y-86847421D01*
X126801734Y-86652327D01*
X126807890Y-86650875D01*
X127557757Y-86494175D01*
X127564019Y-86493033D01*
X128320934Y-86375147D01*
X128327256Y-86374328D01*
X129089257Y-86295561D01*
X129095563Y-86295073D01*
X129860612Y-86255636D01*
X129866995Y-86255473D01*
X130633005Y-86255473D01*
X130639387Y-86255636D01*
G37*
%TD.AperFunction*%
%TD*%
M02*
