%TF.GenerationSoftware,KiCad,Pcbnew,(7.0.0-0)*%
%TF.CreationDate,2023-06-04T20:58:43+02:00*%
%TF.ProjectId,projekt_kue,70726f6a-656b-4745-9f6b-75652e6b6963,rev?*%
%TF.SameCoordinates,Original*%
%TF.FileFunction,Copper,L1,Top*%
%TF.FilePolarity,Positive*%
%FSLAX46Y46*%
G04 Gerber Fmt 4.6, Leading zero omitted, Abs format (unit mm)*
G04 Created by KiCad (PCBNEW (7.0.0-0)) date 2023-06-04 20:58:43*
%MOMM*%
%LPD*%
G01*
G04 APERTURE LIST*
G04 Aperture macros list*
%AMRoundRect*
0 Rectangle with rounded corners*
0 $1 Rounding radius*
0 $2 $3 $4 $5 $6 $7 $8 $9 X,Y pos of 4 corners*
0 Add a 4 corners polygon primitive as box body*
4,1,4,$2,$3,$4,$5,$6,$7,$8,$9,$2,$3,0*
0 Add four circle primitives for the rounded corners*
1,1,$1+$1,$2,$3*
1,1,$1+$1,$4,$5*
1,1,$1+$1,$6,$7*
1,1,$1+$1,$8,$9*
0 Add four rect primitives between the rounded corners*
20,1,$1+$1,$2,$3,$4,$5,0*
20,1,$1+$1,$4,$5,$6,$7,0*
20,1,$1+$1,$6,$7,$8,$9,0*
20,1,$1+$1,$8,$9,$2,$3,0*%
G04 Aperture macros list end*
%TA.AperFunction,SMDPad,CuDef*%
%ADD10RoundRect,0.200000X-0.200000X-0.275000X0.200000X-0.275000X0.200000X0.275000X-0.200000X0.275000X0*%
%TD*%
%TA.AperFunction,SMDPad,CuDef*%
%ADD11R,0.700000X0.450000*%
%TD*%
%TA.AperFunction,ComponentPad*%
%ADD12R,1.700000X1.700000*%
%TD*%
%TA.AperFunction,ComponentPad*%
%ADD13O,1.700000X1.700000*%
%TD*%
%TA.AperFunction,SMDPad,CuDef*%
%ADD14RoundRect,0.200000X0.275000X-0.200000X0.275000X0.200000X-0.275000X0.200000X-0.275000X-0.200000X0*%
%TD*%
%TA.AperFunction,SMDPad,CuDef*%
%ADD15RoundRect,0.250000X0.550000X-1.712500X0.550000X1.712500X-0.550000X1.712500X-0.550000X-1.712500X0*%
%TD*%
%TA.AperFunction,ViaPad*%
%ADD16C,0.800000*%
%TD*%
%TA.AperFunction,Conductor*%
%ADD17C,0.304800*%
%TD*%
G04 APERTURE END LIST*
D10*
%TO.P,R2,1*%
%TO.N,Net-(C1-Pad1)*%
X131950000Y-95550000D03*
%TO.P,R2,2*%
%TO.N,Net-(Q1-C)*%
X133600000Y-95550000D03*
%TD*%
D11*
%TO.P,Q4,1,C*%
%TO.N,Net-(Q4-C)*%
X135849999Y-107199999D03*
%TO.P,Q4,2,B*%
%TO.N,Net-(Q2-C)*%
X133849999Y-106549999D03*
%TO.P,Q4,3,E*%
%TO.N,Net-(Q2-E)*%
X133849999Y-107849999D03*
%TD*%
D12*
%TO.P,LS1,1,1*%
%TO.N,Net-(Q1-C)*%
X134239999Y-98349999D03*
D13*
%TO.P,LS1,2,2*%
%TO.N,Net-(C1-Pad1)*%
X131699999Y-98349999D03*
%TD*%
D12*
%TO.P,Q3,1,C*%
%TO.N,+1V5*%
X129249999Y-109674999D03*
D13*
%TO.P,Q3,2,E*%
%TO.N,Net-(Q2-C)*%
X131789999Y-109674999D03*
%TD*%
D11*
%TO.P,Q1,1,C*%
%TO.N,Net-(Q1-C)*%
X137749999Y-99197499D03*
%TO.P,Q1,2,B*%
%TO.N,Net-(Q1-B)*%
X139749999Y-99847499D03*
%TO.P,Q1,3,E*%
%TO.N,GND*%
X139749999Y-98547499D03*
%TD*%
D14*
%TO.P,R7,1*%
%TO.N,Net-(Q2-C)*%
X136300000Y-104425000D03*
%TO.P,R7,2*%
%TO.N,GND*%
X136300000Y-102775000D03*
%TD*%
%TO.P,R1,1*%
%TO.N,+1V5*%
X128650000Y-107072500D03*
%TO.P,R1,2*%
%TO.N,Net-(C1-Pad1)*%
X128650000Y-105422500D03*
%TD*%
D11*
%TO.P,Q2,1,C*%
%TO.N,Net-(Q2-C)*%
X134599999Y-104499999D03*
%TO.P,Q2,2,B*%
%TO.N,Net-(Q2-B)*%
X132599999Y-103849999D03*
%TO.P,Q2,3,E*%
%TO.N,Net-(Q2-E)*%
X132599999Y-105149999D03*
%TD*%
D10*
%TO.P,R3,1*%
%TO.N,Net-(C1-Pad1)*%
X128850000Y-103647500D03*
%TO.P,R3,2*%
%TO.N,Net-(Q2-B)*%
X130500000Y-103647500D03*
%TD*%
D14*
%TO.P,R5,1*%
%TO.N,Net-(Q4-C)*%
X138550000Y-107250000D03*
%TO.P,R5,2*%
%TO.N,Net-(Q1-B)*%
X138550000Y-105600000D03*
%TD*%
%TO.P,R6,1*%
%TO.N,Net-(Q1-B)*%
X138700000Y-103975000D03*
%TO.P,R6,2*%
%TO.N,GND*%
X138700000Y-102325000D03*
%TD*%
D12*
%TO.P,BT1,1,+*%
%TO.N,+1V5*%
X129399999Y-113399999D03*
D13*
%TO.P,BT1,2,-*%
%TO.N,GND*%
X131939999Y-113399999D03*
%TD*%
D14*
%TO.P,R4,1*%
%TO.N,+1V5*%
X130550000Y-107047500D03*
%TO.P,R4,2*%
%TO.N,Net-(Q2-E)*%
X130550000Y-105397500D03*
%TD*%
D15*
%TO.P,C1,1*%
%TO.N,Net-(C1-Pad1)*%
X124850000Y-101075000D03*
%TO.P,C1,2*%
%TO.N,GND*%
X124850000Y-94900000D03*
%TD*%
D16*
%TO.N,GND*%
X124600000Y-92050000D03*
X138000000Y-101250000D03*
X141000000Y-98450000D03*
X136300000Y-101450000D03*
%TD*%
D17*
%TO.N,+1V5*%
X128650000Y-107072500D02*
X128650000Y-108640000D01*
X130977500Y-107072500D02*
X131002500Y-107047500D01*
X128650000Y-107072500D02*
X130977500Y-107072500D01*
X129410000Y-113390000D02*
X129400000Y-113400000D01*
X129410000Y-109400000D02*
X129410000Y-113390000D01*
X128650000Y-108640000D02*
X129410000Y-109400000D01*
X131002500Y-107047500D02*
X130550000Y-107047500D01*
%TO.N,GND*%
X138700000Y-101950000D02*
X138000000Y-101250000D01*
X124850000Y-94900000D02*
X124850000Y-92300000D01*
X124850000Y-92300000D02*
X124600000Y-92050000D01*
X136300000Y-102775000D02*
X136300000Y-101450000D01*
X140902500Y-98547500D02*
X141000000Y-98450000D01*
X139750000Y-98547500D02*
X140902500Y-98547500D01*
X138700000Y-102325000D02*
X138700000Y-101950000D01*
%TO.N,Net-(C1-Pad1)*%
X128850000Y-101200000D02*
X131700000Y-98350000D01*
X128850000Y-105222500D02*
X128650000Y-105422500D01*
X128850000Y-103647500D02*
X128850000Y-105222500D01*
X128725000Y-101075000D02*
X128850000Y-101200000D01*
X124850000Y-101075000D02*
X128725000Y-101075000D01*
X128850000Y-103647500D02*
X128850000Y-101200000D01*
X131950000Y-98100000D02*
X131700000Y-98350000D01*
X131950000Y-95550000D02*
X131950000Y-98100000D01*
%TO.N,Net-(Q1-C)*%
X137750000Y-99197500D02*
X135087500Y-99197500D01*
X135087500Y-99197500D02*
X134240000Y-98350000D01*
X134240000Y-96190000D02*
X134240000Y-98350000D01*
X133600000Y-95550000D02*
X134240000Y-96190000D01*
%TO.N,Net-(Q1-B)*%
X138550000Y-104125000D02*
X138700000Y-103975000D01*
X138550000Y-105600000D02*
X138550000Y-104125000D01*
X139750000Y-102925000D02*
X138700000Y-103975000D01*
X139750000Y-99847500D02*
X139750000Y-102925000D01*
%TO.N,Net-(Q2-C)*%
X134675000Y-104425000D02*
X134600000Y-104500000D01*
X134900000Y-107250000D02*
X134200000Y-106550000D01*
X133833000Y-109350000D02*
X134900000Y-108283000D01*
X134200000Y-106550000D02*
X133850000Y-106550000D01*
X136300000Y-104425000D02*
X134675000Y-104425000D01*
X134900000Y-108283000D02*
X134900000Y-107250000D01*
X131900000Y-109350000D02*
X133833000Y-109350000D01*
X133850000Y-105250000D02*
X134600000Y-104500000D01*
X133850000Y-106550000D02*
X133850000Y-105250000D01*
%TO.N,Net-(Q2-B)*%
X132600000Y-103850000D02*
X130702500Y-103850000D01*
X130702500Y-103850000D02*
X130500000Y-103647500D01*
%TO.N,Net-(Q2-E)*%
X133850000Y-107850000D02*
X132700000Y-106700000D01*
X132700000Y-105050000D02*
X132600000Y-105150000D01*
X132700000Y-106700000D02*
X132700000Y-105050000D01*
X130550000Y-105397500D02*
X132352500Y-105397500D01*
X132352500Y-105397500D02*
X132600000Y-105150000D01*
%TO.N,Net-(Q4-C)*%
X135850000Y-107200000D02*
X138500000Y-107200000D01*
X138500000Y-107200000D02*
X138550000Y-107250000D01*
%TD*%
M02*
